<svg height="1024" viewBox="0 0 1024 1024" width="1024" xmlns="http://www.w3.org/2000/svg"><path d="m1023.229 348.352c-.234-1.241-.441-2.482-.772-3.696-.207-.731-.455-1.42-.689-2.137-.345-1.076-.703-2.151-1.131-3.199-.303-.731-.648-1.434-.979-2.137-.469-.993-.951-1.972-1.503-2.923-.386-.703-.827-1.365-1.255-2.041-.593-.91-1.2-1.806-1.862-2.675-.483-.648-.979-1.269-1.503-1.889-.689-.827-1.434-1.613-2.179-2.386-.579-.579-1.158-1.158-1.765-1.724-.8-.731-1.627-1.42-2.496-2.082-.662-.51-1.31-1.034-2-1.503-.248-.179-.469-.386-.731-.552l-467.969-312.007c-14.769-9.86-34.033-9.86-48.802 0l-467.997 311.993c-.262.165-.469.372-.731.552-.689.483-1.338.993-2 1.503-.855.676-1.696 1.365-2.496 2.068-.607.552-1.186 1.131-1.751 1.724-.772.772-1.489 1.558-2.193 2.386-.524.621-1.02 1.241-1.503 1.931-.662.869-1.269 1.751-1.862 2.675-.427.676-.855 1.338-1.255 2.041-.552.951-1.034 1.931-1.489 2.896-.331.703-.689 1.42-.979 2.137-.427 1.048-.8 2.124-1.145 3.199-.234.717-.483 1.42-.676 2.068-.317 1.213-.552 2.441-.772 3.696-.124.634-.276 1.255-.359 1.903-.248 1.903-.386 3.806-.386 5.75v312.062c0 1.931.138 3.861.414 5.75.097.689.276 1.241.414 1.903.221 1.241.414 2.482.827 3.723.193.689.414 1.379.689 2.137.345 1.103.689 2.206 1.103 3.213.29.689.689 1.379.965 2.068.455.965.965 1.931 1.517 2.937.386.689.827 1.379 1.241 2.013.593.965 1.241 1.793 1.931 2.62.483.689.965 1.241 1.517 1.903.703.827 1.379 1.655 2.206 2.386.565.552 1.103 1.241 1.793 1.655.8.689 1.655 1.379 2.482 2.096.662.552 1.379.965 1.931 1.503.262.138.414.414.689.538l467.873 312.159c7.391 4.964 15.858 7.446 24.408 7.405s17.017-2.482 24.408-7.405l467.997-311.993c.262-.165.483-.359.731-.538.689-.483 1.338-.993 2-1.503.855-.676 1.696-1.379 2.496-2.096.607-.538 1.186-1.131 1.765-1.71.758-.772 1.489-1.558 2.179-2.386.524-.621 1.02-1.241 1.503-1.903.662-.869 1.269-1.765 1.862-2.675.427-.662.855-1.338 1.255-2.013.552-.965 1.034-1.944 1.503-2.937.331-.703.676-1.407.979-2.124.427-1.062.786-2.137 1.131-3.213.234-.717.483-1.42.689-2.137.317-1.213.538-2.455.772-3.696.11-.634.276-1.255.345-1.903.248-1.903.386-3.806.386-5.75v-312.007c0-1.944-.152-3.847-.386-5.75-.11-.676-.317-1.227-.455-1.903zm-511.242 267.742-155.617-104.085 155.617-104.099 155.631 104.099zm-43.989-284.621-190.768 127.597-153.99-103.01 344.758-229.834zm-269.907 180.522-110.07 73.624v-147.247zm79.139 52.98 190.768 127.583v205.247l-344.758-229.862 153.99-102.996zm278.76 127.555 190.768-127.583 154.004 102.996-344.772 229.834zm269.907-180.508 110.084-73.637v147.261l-110.084-73.651zm-79.139-52.952-190.768-127.583v-205.261l344.772 229.834z" fill="#fff"/></svg>