<svg height="1024" viewBox="0 0 1024 1024" width="1024" xmlns="http://www.w3.org/2000/svg"><path d="m513.095 11.317c-283.816 0-513.094 229.278-513.094 513.094 0 227.053 146.916 419.602 350.596 487.496 25.6 4.452 35.616-11.13 35.616-24.486 0-12.243-1.113-52.311-1.113-95.718-129.109 23.373-162.499-31.164-172.516-60.102-5.565-14.469-31.164-60.102-52.311-72.345-17.808-10.017-43.407-33.39-1.113-34.503 40.068-1.113 69.006 36.73 79.024 52.311 46.747 77.911 120.205 55.65 149.143 42.294 4.452-33.39 17.808-55.65 32.277-69.006-114.639-13.356-233.731-56.764-233.731-253.765 0-55.65 20.034-102.396 52.311-138.012-5.565-13.356-23.373-65.667 5.565-135.786 0 0 43.407-13.356 141.352 52.311 41.181-11.13 84.588-17.808 127.996-17.808s86.814 5.565 127.996 17.808c97.945-66.781 141.352-52.311 141.352-52.311 27.825 70.119 10.017 123.543 5.565 135.786 32.277 35.616 52.311 81.249 52.311 138.012 0 197.001-120.205 240.409-234.844 253.765 18.921 15.583 34.503 46.747 34.503 94.605 0 69.006-1.113 123.543-1.113 141.352 0 13.356 10.017 30.051 35.616 24.486 202.567-67.894 349.483-260.442 349.483-487.496 3.339-282.703-227.053-511.982-510.869-511.982z" fill="#fff"/></svg>