<svg height="1024" viewBox="0 0 1024 1024" width="1024" xmlns="http://www.w3.org/2000/svg"><path d="m113.778 1024h796.444c62.838 0 113.778-50.94 113.778-113.778v-796.444c0-62.838-50.94-113.778-113.778-113.778h-796.444c-62.838 0-113.778 50.94-113.778 113.778v796.444c0 62.838 50.94 113.778 113.778 113.778z" fill="#fff"/><path d="m881.778 881.778h-151.956v-258.814c0-70.96-26.963-110.615-83.128-110.615-61.1 0-93.022 41.267-93.022 110.615v258.814h-146.443v-493.037h146.443v66.412s44.031-81.475 148.657-81.475c104.578 0 179.448 63.861 179.448 195.94zm-649.254-557.596c49.881 0 90.278-40.738 90.278-90.98s-40.396-90.98-90.278-90.98c-49.881 0-90.302 40.738-90.302 90.98s40.42 90.98 90.302 90.98zm-75.617 64.559h152.702v493.037h-152.702z" fill="#303030"/></svg>