<svg height="1024" viewBox="0 0 1024 1024" width="1024" xmlns="http://www.w3.org/2000/svg"><path d="m256.003 583.835 111.039 318.879s13.888 29.824 28.768 29.824 235.999-238.655 235.999-238.655l245.919-492.766-617.757 300.383-3.968 82.304z" fill="#303030"/><g fill="#fff"><path d="m389.923 639.994-23.776 257.503s-9.952 78.912 67.456 0 151.551-139.743 151.551-139.743z"/><path d="m251.779 581.723-231.263-75.04s-27.648-11.168-18.752-36.48c1.824-5.216 5.536-9.664 16.576-17.312 51.232-35.552 948.412-356.67 948.412-356.67s25.344-8.512 40.288-2.848c3.712 1.152 7.008 3.232 9.632 6.08s4.416 6.304 5.248 10.08c1.632 6.656 2.304 13.504 2.016 20.32-.064 5.92-.8 11.392-1.344 20-5.472 87.808-168.991 743.037-168.991 743.037s-9.792 38.336-44.832 39.648c-8.608.288-17.216-1.184-25.248-4.256s-15.36-7.776-21.568-13.76c-68.8-58.912-306.527-218.047-359.07-253.023-1.184-.8-2.176-1.856-2.912-3.072s-1.216-2.592-1.376-4c-.736-3.68 3.296-8.256 3.296-8.256s413.982-366.43 424.99-404.894c.864-2.976-2.368-4.448-6.688-3.136-27.488 10.08-504.158 309.823-556.765 342.91-3.776 1.152-7.776 1.376-11.68.704z"/></g></svg>