<svg version="1.1" xmlns="http://www.w3.org/2000/svg" width="1024" height="1024" viewBox="0 0 1024 1024"><path fill="#e86a58" d="M87.586 731.242c133.908 206.2 409.595 264.799 615.783 130.901 206.167-133.886 264.786-409.587 130.878-615.787-133.9-206.186-409.594-264.753-615.761-130.867-50.574 32.844-92.272 74.205-124.415 121.003-0.573 0.83-1.144 1.648-1.684 2.485-86.399 127.526-102.349 294.572-34.609 438.684 0.035 0.052 0.048 0.117 0.083 0.17 8.555 18.209 18.46 36.065 29.726 53.412z"/><path fill="#f58c79" d="M57.86 677.83c-0.035-0.052-0.048-0.117-0.083-0.17-67.74-144.113-51.783-311.164 34.609-438.684 0.54-0.837 1.111-1.655 1.684-2.485 32.143-46.797 73.834-88.155 124.415-121.003 21.433-13.919 43.624-25.724 66.319-35.529-24.715 22.748-46.407 47.876-64.911 74.821-0.573 0.83-1.149 1.654-1.691 2.489-86.392 127.522-102.342 294.567-34.604 438.68 0.035 0.052 0.048 0.117 0.083 0.17 8.548 18.213 18.46 36.065 29.726 53.412 119.984 184.76 353.777 250.986 549.425 166.455-18.202 16.753-38.024 32.232-59.464 46.155-206.186 133.9-481.875 75.299-615.783-130.901-11.266-17.347-21.17-35.203-29.726-53.412v0z"/><path fill="#fdd7bd" d="M900.557 249.786l-304.434-4.47c-21.69-0.329-42.597 7.54-58.617 22.055-16.054 14.535-36.978 22.491-58.721 22.169l-40.748-0.619-4.888 340.474 149.783 145.258c11.652 11.313 21.894 23.802 30.599 37.206 22.526 34.686 34.747 75.429 34.61 117.293-0.030 10.296 3.028 19.94 8.268 28.009 8.961 13.798 24.356 23.034 41.892 23.297 23.643 0.359 44.135-15.873 49.266-39.001l9.173-41.185c10.469-47.146 10.305-96.175-0.514-143.491l-10.554-46.245 202.364 2.767c32.341 0.474 58.533-25.924 57.745-58.641-0.749-31.519-27.184-56.632-58.559-57.088-0.383-0.014-0.586-0.283-0.634-0.559-0.030-0.307 0.135-0.64 0.513-0.706 6.985-1.444 13.502-4.182 19.283-7.936 9.238-6 16.642-14.638 21.143-24.838 3.099-7.038 4.825-14.838 4.854-23.051 0.050-15.875-6.265-30.346-16.536-40.94-16.157-16.71-36.297-17.644-40.198-17.754-0.664-0.017-1.207-0.58-1.202-1.275-0.012-0.019-0.008-0.041 0.011-0.054 0.018-0.619 0.555-1.145 1.178-1.148 4.458-1.55 8.664-3.647 12.581-6.19 9.554-6.204 17.271-15.121 21.963-25.576 3.172-7.085 4.962-14.9 4.98-23.058 0.106-31.943-25.587-58.229-57.386-58.69-0.8-0.022-1.589-0.043-2.364-0.044-0.478-0.044-0.839-0.399-0.858-0.789-0.014-0.094 0.004-0.209 0.055-0.289 0.122-0.359 0.501-0.624 0.974-0.586 16.858-4.193 30.434-16.084 37.358-31.819 3.209-7.212 4.977-15.265 5.004-23.755 0.091-31.98-25.597-58.261-57.388-58.736v0z"/><path fill="#87dbff" d="M57.86 677.83l220.564 5.866 130.999 1.927c15.092 0.222 27.345-11.891 27.394-27.066l1.281-388.090c0.036-15.194-12.166-27.654-27.283-27.887l-128.426-1.879-190.004-1.732c-86.395 127.531-102.345 294.578-34.605 438.691 0.035 0.052 0.048 0.117 0.083 0.17v0z"/><path fill="#6fc7ff" d="M410.824 242.583l-128.435-1.893-3.961 443.014 130.992 1.933c15.092 0.222 27.366-11.905 27.409-27.086l1.27-388.092c0.044-15.181-12.158-27.64-27.275-27.875z"/><path fill="#fac5aa" d="M987.524 563.527l-95.398 7.594c-13.53 1.089-24.107 11.974-24.851 25.573l79.314 0.32c-0.030-0.307 0.131-0.647 0.508-0.713 6.989-1.437 13.506-4.175 19.288-7.929 9.245-6.004 16.642-14.638 21.139-24.845z"/><path fill="#fac5aa" d="M970.176 447.542l-93.313 7.453c-13.538 1.076-24.12 11.955-24.859 25.561l79.31 0.314 3.141-0.414c0.018-0.619 0.555-1.145 1.178-1.148 4.462-1.543 8.664-3.647 12.581-6.19 9.554-6.204 17.278-15.125 21.963-25.576v0z"/><path fill="#fac5aa" d="M952.944 332.266l-82.195 6.548c-13.512 1.087-24.087 11.962-24.846 25.58l68.703 0.28c0.122-0.359 0.501-0.624 0.974-0.586 16.858-4.193 30.441-16.088 37.365-31.823v0z"/><path fill="#000" d="M49.463 696.66c-1.435-1.347-2.652-2.948-3.524-4.792-7.831-16.661-14.701-33.929-20.433-51.329-0.069-0.18-0.133-0.362-0.196-0.546-0.015-0.037-0.023-0.079-0.037-0.116-0.011-0.030-0.021-0.061-0.032-0.091s-0.017-0.054-0.028-0.086c-0.004-0.007-0.008-0.014-0.008-0.014-33.171-95.584-33.613-201.334-1.25-297.794 33.399-99.524 97.687-182.414 185.911-239.708 103.264-67.060 226.465-89.898 346.904-64.297 119.29 25.356 221.717 95.246 288.829 196.935l55.822 0.499c24.728 0.216 47.528 12.742 61.008 33.498 7.865 12.11 11.96 26.171 11.84 40.672-0.184 19.727-8.178 37.568-20.998 50.667 10.249 5.741 19.131 13.939 25.754 24.136 7.869 12.117 11.958 26.182 11.817 40.65-0.173 19.701-8.175 37.557-21.005 50.671 10.26 5.743 19.147 13.947 25.773 24.152 7.86 12.103 11.952 26.157 11.828 40.653-0.182 19.699-8.191 37.547-21.017 50.652 10.249 5.741 19.143 13.94 25.765 24.138 7.873 12.123 11.949 26.198 11.81 40.683-0.18 19.632-7.99 38.016-21.998 51.773-3.585 3.514-7.468 6.625-11.587 9.3-11.972 7.775-25.968 11.884-40.57 11.755l-94.657-0.847c-4.561 7.548-9.369 15.005-14.343 22.234-17.421 25.363-37.487 48.969-59.657 70.326 0.637 27.995-2.152 56.009-8.414 83.364l-9.402 41.091c-3.885 16.891-14.008 31.367-28.509 40.784-10.913 7.088-23.587 10.777-36.662 10.665-22.271-0.203-42.823-11.481-54.963-30.175-7.105-10.94-10.788-23.617-10.651-36.625 0.029-4.241-0.115-8.492-0.359-12.723-135.092 54.286-287.968 41.569-413.143-35.427-7.453-4.586-9.785-14.348-5.198-21.8s14.348-9.785 21.8-5.198c118.828 73.093 264.431 84.033 391.979 30.068-8.412-36.716-27.525-70.796-54.68-96.974l-123.312-118.954c-1.555 8.754-5.736 16.802-12.201 23.16-2.118 2.076-4.4 3.912-6.831 5.491-7.037 4.57-15.263 6.979-23.844 6.899l-318.943-2.876c4.133 7.255 8.479 14.41 13.032 21.421 21.578 33.228 47.479 63.201 76.962 89.080 6.578 5.77 7.23 15.782 1.46 22.359-0.988 1.127-2.094 2.069-3.289 2.846-5.802 3.767-13.614 3.404-19.076-1.381-31.671-27.794-59.469-59.972-82.636-95.644-9.076-13.976-17.394-28.51-24.84-43.226v0zM260.147 671.072l6.026-409.753-161.211-1.439c-71.489 108.595-90.13 246.065-49.758 369.557 0.015 0.037 0.028 0.086 0.041 0.122 0.036 0.098 0.073 0.185 0.105 0.278 4.661 13.405 10.071 26.641 16.080 39.535l188.714 1.702zM817.833 727.544l-50.724-0.457 5.995 26.738c1.84 8.213 3.361 16.511 4.588 24.859 13.405-14.628 25.808-30.184 37.029-46.523 1.049-1.521 2.075-3.076 3.111-4.617zM594.988 764.674c34.965 33.717 58.531 78.695 66.341 126.637-0.003 0.011 0.001 0.018 0.004 0.035 0.017 0.083 0.026 0.17 0.036 0.257 2.024 12.539 3.009 25.389 2.912 38.231-0.073 6.793 1.844 13.385 5.54 19.075 6.332 9.75 17.048 15.636 28.665 15.744 6.819 0.057 13.439-1.861 19.123-5.552 7.563-4.911 12.84-12.477 14.873-21.289l9.398-41.069c6.165-26.957 8.667-54.607 7.449-82.176-0.010-0.246-0.014-0.496-0.019-0.735-0.829-17.79-3.23-35.642-7.125-53.076l-10.372-46.223c-1.912-8.539 3.451-17.011 11.994-18.933 0.178-0.041 0.356-0.054 0.529-0.091 0.535-0.17 1.341-0.264 2.471-0.279 0.126-0.007 0.25-0.004 0.376-0.011 0.084 0.001 0.148-0.003 0.239-0.006l202.712 1.822c11.159 0.095 21.695-4.15 29.664-11.977s12.409-18.278 12.509-29.459c0.088-8.25-2.234-16.243-6.697-23.116-7.668-11.807-20.651-18.939-34.726-19.065l-17.3-0.144c-0.004-0.007-0.011-0.003-0.022-0.004-0.095-0.003-0.198-0.003-0.293-0.006l-39.259-0.354c-8.75-0.082-15.78-7.24-15.699-15.99s7.24-15.78 15.986-15.706l39.524 0.359c22.928 0.048 41.722-18.51 41.927-41.426 0.070-8.249-2.241-16.239-6.7-23.104-7.681-11.826-20.67-18.955-34.742-19.075l-56.861-0.515c-8.746-0.075-15.786-7.218-15.719-15.976 0.075-8.746 7.229-15.783 15.976-15.719l39.502 0.354c22.94 0.068 41.755-18.503 41.949-41.45 0.080-8.235-2.238-16.221-6.701-23.093-7.677-11.821-20.648-18.951-34.724-19.076l-56.872-0.518c-8.753-0.070-15.786-7.218-15.715-15.971 0.064-8.749 7.225-15.79 15.976-15.719l39.285 0.336c23.041 0.209 41.964-18.368 42.172-41.408 0.077-8.253-2.249-16.251-6.717-23.131-7.672-11.814-20.651-18.939-34.709-19.068l-138.011-1.232c-8.757-0.077-15.787-7.236-15.71-15.991 0.082-8.75 7.246-15.784 15.99-15.699l43.331 0.381c-133.498-181.747-388.129-230.060-579.617-105.706-42.052 27.31-78.24 60.872-107.745 99.546l291.679 2.61c23.815 0.247 43.019 19.808 42.812 43.615l-0.022 2.556 24.949 0.239c13.972 0.109 27.536-3.832 39.212-11.415 3.161-2.053 6.147-4.357 8.919-6.866 19.118-17.283 43.844-26.678 69.644-26.45l99.010 0.888c8.75 0.082 15.776 7.233 15.699 15.99-0.047 5.523-2.915 10.357-7.225 13.155-2.522 1.638-5.531 2.574-8.76 2.55l-99.010-0.888c-17.819-0.152-34.905 6.338-48.084 18.25-4.005 3.629-8.352 6.975-12.933 9.949-16.906 10.98-36.522 16.693-56.751 16.527l-24.95-0.229-2.857 316.716 144.277 139.166zM407.092 672.397c3.064 0.028 5.964-1.145 8.149-3.303 2.203-2.159 3.422-5.044 3.451-8.135l3.318-368.237c0-0.028-0.006-0.052-0.001-0.073 0-0.028 0.006-0.050 0.006-0.079l0.166-18.315c0.052-6.349-5.089-11.576-11.429-11.644l-112.884-1.006-6.026 409.753 115.25 1.039z"/></svg>