<svg version="1.1" xmlns="http://www.w3.org/2000/svg" width="1024" height="1024" viewBox="0 0 1024 1024"><path fill="#2fb28c" d="M918.366 560.828c0 247.008-200.266 447.249-447.273 447.249-60.594 0-118.359-12.047-171.039-33.891-144.008-59.648-250.078-192.352-272.008-351.891-2.781-20.086-4.203-40.617-4.203-61.469 0-247.031 200.242-447.273 447.249-447.273s447.273 200.242 447.273 447.273z"/><path fill="#4fd4ae" d="M471.093 113.555c-23.648 0-46.859 1.852-69.516 5.383 214 33.398 377.765 218.508 377.765 441.89 0 223.352-163.75 408.452-377.726 441.859 22.641 3.531 45.836 5.391 69.477 5.391 247.008 0 447.273-200.242 447.273-447.249 0-247.031-200.266-447.273-447.273-447.273z"/><path fill="#fdd7bd" d="M974.202 527.757l-255.406 169.125c-18.195 12.055-40.234 16.836-61.781 13.391-21.594-3.438-43.688 1.281-61.93 13.359l-34.18 22.648-191.414-282.149 46.961-202.883c3.656-15.789 5.461-31.797 5.461-47.742 0-41.25-12.063-81.969-35.203-116.922-5.688-8.594-8.406-18.32-8.406-27.914 0-16.414 7.961-32.508 22.672-42.25 19.828-13.141 46.109-10.695 63.18 5.859l30.422 29.469c34.797 33.758 61.633 74.859 78.492 120.313l16.5 44.414 169.883-112.242c27.133-17.961 63.844-10.109 81.164 17.68 16.711 26.773 8.133 62.148-18.195 79.578-0.32 0.211-0.336 0.547-0.234 0.805 0.148 0.273 0.469 0.469 0.828 0.32 6.711-2.594 13.734-3.844 20.703-3.844 11.117 0 22.141 3.203 31.57 9.297 6.492 4.203 12.242 9.789 16.789 16.641 8.766 13.25 11.383 28.789 8.516 43.227-4.508 22.758-21.039 34.477-24.289 36.688-0.555 0.383-0.703 1.141-0.32 1.719 0 0.023 0.023 0.039 0.047 0.039 0.359 0.516 1.102 0.664 1.633 0.32 4.625-1.125 9.336-1.656 14.055-1.656 11.5 0 22.945 3.273 32.672 9.469 6.578 4.203 12.398 9.766 16.898 16.578 17.664 26.664 10.359 62.609-16.328 80.273-0.656 0.445-1.313 0.891-1.969 1.313-0.383 0.305-0.492 0.789-0.297 1.133 0.039 0.078 0.125 0.164 0.211 0.211 0.297 0.234 0.766 0.25 1.148-0.047 16.578-5.648 34.625-3.078 49.148 6.328 6.688 4.289 12.609 10.063 17.297 17.156 17.664 26.695 10.367 62.633-16.297 80.297v0z"/><path fill="#87dbff" d="M563.351 799.828l-263.297 174.367c-144.008-59.656-250.078-192.352-272.008-351.899l290.414-192.32c12.648-8.391 29.719-4.906 38.102 7.766l214.555 323.953c8.391 12.68 4.906 29.727-7.766 38.133v0z"/><path fill="#6fc7ff" d="M563.351 799.828l-107.742 71.352-247.039-368.429 109.891-72.773c12.648-8.391 29.719-4.906 38.102 7.766l214.555 323.953c8.391 12.68 4.906 29.727-7.766 38.133v0z"/><path fill="#fac5aa" d="M875.288 218.070l-84.984 45.477c-12.063 6.438-27.008 3.078-35.117-7.898l67-43.352c0.148 0.281 0.469 0.469 0.828 0.32 6.711-2.594 13.734-3.844 20.703-3.844 11.125 0 22.141 3.211 31.57 9.297v0z"/><path fill="#fac5aa" d="M924.389 324.523l-83.133 44.453c-12.063 6.453-27.008 3.102-35.117-7.875l67-43.352 2.891-1.359c0.359 0.516 1.102 0.664 1.633 0.32 4.633-1.125 9.344-1.656 14.055-1.656 11.508 0 22.953 3.266 32.672 9.469z"/><path fill="#fac5aa" d="M973.202 430.312l-73.227 39.172c-12.031 6.43-26.984 3.078-35.109-7.898l58.039-37.555c0.297 0.234 0.766 0.25 1.148-0.047 16.578-5.648 34.625-3.078 49.148 6.328z"/><path fill="#000" d="M1003.78 438.679c-10.617-16.031-26.711-27.078-45.422-31.266 12.070-23.086 11.578-51.891-3.797-75.102-10.938-16.523-27.438-27.195-45.398-31.234 3.203-6.109 5.57-12.703 6.984-19.656 3.922-19.336 0.094-39.039-10.805-55.484-10.617-16.039-26.711-27.086-45.422-31.266 12.070-23.086 11.578-51.891-3.797-75.109-22.477-33.945-68.398-43.281-102.352-20.797l-73.516 48.688c-39.188-19.875-80.867-33.977-124.125-42.008-13.672-20.758-29.57-40.055-47.367-57.305l-30.414-29.477c-22.273-21.594-57.203-24.836-83.063-7.703-30.594 20.258-39 61.633-18.742 92.227 0.797 1.211 1.578 2.43 2.352 3.648-99.695 20.172-190.555 73.078-257.805 150.602-72.977 84.133-113.172 191.883-113.172 303.399 0 21.375 1.461 42.789 4.352 63.633 22.273 162.039 130.211 301.68 281.68 364.437 56.172 23.281 115.774 35.094 177.125 35.094 97.164 0 190.172-29.758 268.977-86.047 77.094-55.078 134.774-131.086 166.813-219.805 2.992-8.266-1.297-17.398-9.563-20.383-8.273-2.984-17.398 1.297-20.383 9.57-29.836 82.617-83.563 153.399-155.383 204.703-73.367 52.414-159.977 80.117-250.461 80.117-46.781 0-92.461-7.383-136.18-21.945l129.547-85.789c0.008-0.008 0.016-0.008 0.023-0.016 0.008 0 0.008-0.008 0.016-0.016l107.672-71.297c9.664-6.406 16.266-16.188 18.578-27.555s0.063-22.961-6.344-32.625l-1.422-2.156 20.914-13.852c14.922-9.883 32.867-13.758 50.539-10.922 25.586 4.109 51.57-1.516 73.164-15.82l173.469-114.875c-1.188 15.047-3.141 30.008-5.867 44.719-1.609 8.648 4.102 16.961 12.75 18.563 0.977 0.187 1.961 0.273 2.922 0.273 7.523 0 14.211-5.359 15.633-13.023 4.414-23.742 6.953-48.063 7.609-72.414l48.883-32.375c16.445-10.891 27.672-27.539 31.594-46.867 3.93-19.336 0.094-39.039-10.797-55.484v0zM649.343 167.921l-48.648 32.219-9.578-25.805c-4-10.766-8.586-21.32-13.664-31.648 24.68 6.258 48.711 14.695 71.891 25.234zM145.149 278.304c64.633-74.508 152.672-124.594 248.985-141.961 15.453 37.438 19.156 79.266 9.922 119.133l-38.82 167.711c-6.102-6.516-14.023-11.008-22.945-12.82-11.375-2.32-22.961-0.063-32.625 6.344l-109.961 72.813c-0.008 0-0.008 0-0.016 0.008 0 0-0.008 0-0.008 0.008l-158.594 105.024c-0.867-11.188-1.32-22.461-1.32-33.727 0-103.844 37.43-204.188 105.383-282.531zM559.531 779.187c-0.617 3.031-2.383 5.648-4.969 7.359h0.008l-94.563 62.617-175.508-261.742c-4.898-7.305-14.789-9.25-22.094-4.352-7.297 4.898-9.25 14.781-4.352 22.086l175.399 261.594-134.992 89.399c-134.141-58.672-230.133-182.578-253.211-326.758l158.781-104.805 18.273 27.266c3.078 4.578 8.109 7.055 13.242 7.055 3.047 0 6.133-0.867 8.852-2.695 7.305-4.898 9.258-14.789 4.359-22.094l-18.148-27.070 96.641-63.789c2.57-1.711 5.656-2.305 8.688-1.688s5.648 2.383 7.359 4.961l214.547 323.969c1.703 2.57 2.305 5.656 1.688 8.688v0zM983.374 487.82c-2.234 11-8.617 20.469-17.977 26.664l-55.883 37.008c-0.016 0.008-0.031 0.023-0.055 0.031l-199.461 132.094c-14.922 9.883-32.867 13.766-50.539 10.922-25.578-4.102-51.563 1.516-73.164 15.82l-20.914 13.852-175.719-265.336 45.422-196.211c11.695-50.547 5.531-103.789-16.75-150.172-0.203-0.484-0.422-0.953-0.672-1.414-4.281-8.766-9.141-17.273-14.57-25.477-10.563-15.953-6.18-37.523 9.781-48.094 13.484-8.93 31.703-7.242 43.313 4.016l30.414 29.484c32.898 31.898 58.719 71.461 74.656 114.414l16.563 44.617c0.031 0.086 0.063 0.156 0.094 0.234 0.039 0.102 0.086 0.211 0.125 0.313 0.117 0.273 0.227 0.523 0.344 0.734 0.32 0.672 0.672 1.336 1.094 1.969 4.859 7.336 14.734 9.344 22.063 4.484l169.82-112.453c19.313-12.789 45.43-7.484 58.219 11.828s7.484 45.43-11.828 58.219l-14.742 9.766c0 0-0.008 0-0.016 0.008l-32.883 21.781c-0.047 0.031-0.078 0.062-0.125 0.086-0.187 0.133-0.367 0.258-0.516 0.383-6.797 4.992-8.555 14.484-3.844 21.594 4.852 7.336 14.734 9.344 22.070 4.484l32.906-21.797c9.352-6.18 20.547-8.359 31.539-6.125s20.469 8.617 26.656 17.977c6.195 9.352 8.383 20.563 6.148 31.555-2.234 11-8.617 20.469-17.977 26.664l-47.641 31.555c-7.336 4.852-9.344 14.727-4.484 22.063 3.063 4.625 8.125 7.133 13.289 7.133 3.016 0 6.070-0.859 8.773-2.648l32.891-21.781c19.32-12.789 45.43-7.484 58.219 11.828 12.789 19.32 7.484 45.43-11.828 58.227l-23.797 15.758c-0.125 0.078-0.25 0.164-0.375 0.25l-23.469 15.539c-7.336 4.852-9.344 14.734-4.484 22.070 3.063 4.625 8.125 7.133 13.289 7.133 3.016 0 6.070-0.859 8.773-2.648l7.375-4.883c0 0 0-0.008 0.008-0.008l25.516-16.891c9.352-6.195 20.555-8.383 31.555-6.141 11 2.227 20.469 8.617 26.664 17.969 6.188 9.352 8.367 20.563 6.133 31.555z"/></svg>